#!OML:ASF I:\Actors\actors\Patient Classification 1\Patient 1\Session 1\Subject1.ASF
:FULLY-SPECIFIED
:DEGREES
108
root 0.0592347 17.4995 8.16356 11.2219 1.4211 -8.19457
lowerback -1.26925 0.60225 3.83575
upperback -9.36826 1.09862 1.75211
thorax -9.1347 0.325038 -0.357723
lowerneck 5.0613 -15.5113 -15.3742
upperneck 9.74163 -23.7049 19.7231
head 6.36875 -11.7598 6.96779
rclavicle 6.21202e-015 6.75868e-015
rhumerus -45.2742 -33.0851 -61.3465
rradius 24.9988
rwrist 45.709
rhand 11.5997 -34.4089
rfingers 7.12502
rthumb 36.642 -60.5651
lclavicle 6.21202e-015 6.75868e-015
lhumerus -44.2366 26.9174 70.0751
lradius 23.0552
lwrist -27.4158
lhand -16.0981 -8.0122
lfingers 7.12502
lthumb 10.1055 21.7251
rfemur -6.82812 24.9733 22.5586
rtibia 2.1759
rfoot -12.6734 -27.0627
rtoes 4.04438
lfemur -0.55822 -48.5521 -8.10755
ltibia -4.11952
lfoot -24.6337 55.3087
ltoes 14.1697
109
root 0.0596975 17.499 8.16589 11.2241 1.41877 -8.14955
lowerback -1.31583 0.601375 3.81577
upperback -9.35497 1.09217 1.73462
thorax -9.09219 0.323369 -0.364339
lowerneck 5.00871 -15.5308 -15.3246
upperneck 9.85272 -23.7289 19.6236
head 6.39753 -11.7658 6.92015
rclavicle 9.59136e-015 -1.23246e-014
rhumerus -45.2435 -32.9513 -61.4416
rradius 25.1251
rwrist 45.4816
rhand 11.6394 -34.3869
rfingers 7.12502
rthumb 36.6795 -60.5335
lclavicle 9.59136e-015 -1.23246e-014
lhumerus -44.2397 26.9076 70.0336
lradius 23.0567
lwrist -27.4867
lhand -16.0124 -8.12144
lfingers 7.12502
lthumb 10.1882 21.6119
rfemur -6.79974 24.9375 22.5116
rtibia 2.1449
rfoot -12.6196 -27.0298
rtoes 3.90654
lfemur -0.478917 -48.7567 -8.2287
ltibia -4.11655
lfoot -24.9264 55.4342
ltoes 14.2627
110
root 0.059552 17.4984 8.16608 11.2232 1.42028 -8.15685
lowerback -1.32773 0.603661 3.85203
upperback -9.34751 1.09483 1.72327
thorax -9.07624 0.321567 -0.396628
lowerneck 4.97183 -15.5323 -15.2809
upperneck 9.95316 -23.735 19.5704
head 6.42385 -11.7634 6.89242
rclavicle 1.58034e-014 -2.50469e-014
rhumerus -45.2359 -32.8529 -61.5269
rradius 25.2403
rwrist 45.3406
rhand 11.5724 -34.3969
rfingers 7.12502
rthumb 36.6161 -60.5596
lclavicle 1.58034e-014 -2.50469e-014
lhumerus -44.2139 26.945 69.956
lradius 23.0063
lwrist -27.6389
lhand -16.0553 -8.23228
lfingers 7.12502
lthumb 10.1468 21.503
rfemur -6.78484 24.9494 22.5234
rtibia 2.12817
rfoot -12.6125 -27.0458
rtoes 3.9708
lfemur -0.447585 -48.7636 -8.2353
ltibia -4.15634
lfoot -24.8147 55.4988
ltoes 14.1168
111
root 0.0584806 17.498 8.16518 11.2175 1.44044 -8.20204
lowerback -1.31618 0.596782 3.91567
upperback -9.34177 1.08857 1.72508
thorax -9.07657 0.313561 -0.429823
lowerneck 4.92326 -15.5274 -15.2118
upperneck 10.0431 -23.725 19.5004
head 6.44051 -11.7526 6.85781
rclavicle 1.2921e-015 5.56597e-015
rhumerus -45.211 -32.783 -61.5992
rradius 25.2935
rwrist 45.2218
rhand 11.4846 -34.3908
rfingers 7.12502
rthumb 36.533 -60.5746
lclavicle 1.2921e-015 5.56597e-015
lhumerus -44.1927 26.9999 69.8523
lradius 22.9456
lwrist -27.7753
lhand -16.1223 -8.19529
lfingers 7.12502
lthumb 10.0821 21.5432
rfemur -6.77606 24.9883 22.5841
rtibia 2.12036
rfoot -12.6358 -27.1003
rtoes 4.10512
lfemur -0.454976 -48.7571 -8.1635
ltibia -4.17554
lfoot -24.7128 55.5143
ltoes 14.0914
112
root 0.0564557 17.497 8.16403 11.2126 1.46969 -8.23488
lowerback -1.30205 0.59278 3.94226
upperback -9.33821 1.08529 1.72984
thorax -9.08106 0.310051 -0.439516
lowerneck 4.86124 -15.5136 -15.1759
upperneck 10.1432 -23.7086 19.4585
head 6.4693 -11.7378 6.83588
rclavicle 9.24349e-015 4.13472e-014
rhumerus -45.1797 -32.7209 -61.6582
rradius 25.309
rwrist 45.0565
rhand 11.4091 -34.3728
rfingers 7.12502
rthumb 36.4615 -60.5745
lclavicle 9.24349e-015 4.13472e-014
lhumerus -44.1947 27.0417 69.7666
lradius 22.914
lwrist -27.8397
lhand -16.1042 -8.15986
lfingers 7.12502
lthumb 10.0997 21.5778
rfemur -6.77702 25.0241 22.6323
rtibia 2.13264
rfoot -12.6972 -27.1398
rtoes 4.203
lfemur -0.517205 -48.673 -8.07229
ltibia -4.14443
lfoot -24.7153 55.3776
ltoes 14.1525
113
root 0.0538012 17.4964 8.16249 11.2047 1.50883 -8.23925
lowerback -1.28236 0.597711 3.92835
upperback -9.33289 1.0925 1.72989
thorax -9.08656 0.31474 -0.432423
lowerneck 4.8337 -15.4641 -15.1835
upperneck 10.1867 -23.6487 19.4938
head 6.48205 -11.7052 6.85472
rclavicle -2.34069e-014 -1.55052e-014
rhumerus -45.1898 -32.6882 -61.6829
rradius 25.3495
rwrist 44.9003
rhand 11.3236 -34.3311
rfingers 7.12502
rthumb 36.3806 -60.5532
lclavicle -2.34069e-014 -1.55052e-014
lhumerus -44.1804 27.0494 69.7406
lradius 22.9038
lwrist -27.8814
lhand -16.1136 -7.91036
lfingers 7.12502
lthumb 10.0906 21.8277
rfemur -6.77072 25.059 22.6567
rtibia 2.15587
rfoot -12.8031 -27.1851
rtoes 4.46059
lfemur -0.596738 -48.5012 -8.00502
ltibia -4.10597
lfoot -24.5524 55.1919
ltoes 14.0512
114
root 0.0515041 17.4972 8.16172 11.1761 1.54619 -8.21591
lowerback -1.25464 0.598131 3.89582
upperback -9.31797 1.09225 1.72055
thorax -9.08624 0.316916 -0.424567
lowerneck 4.76791 -15.4097 -15.1297
upperneck 10.2444 -23.5662 19.4583
head 6.48453 -11.6588 6.84329
rclavicle -1.35671e-014 -1.39149e-014
rhumerus -45.2136 -32.6666 -61.7102
rradius 25.4075
rwrist 44.774
rhand 11.3344 -34.3888
rfingers 7.12502
rthumb 36.3909 -60.6083
lclavicle -1.35671e-014 -1.39149e-014
lhumerus -44.1499 27.0224 69.7473
lradius 22.8905
lwrist -27.8701
lhand -16.21 -7.70653
lfingers 7.12502
lthumb 9.99756 22.036
rfemur -6.72239 25.0875 22.6648
rtibia 2.15615
rfoot -12.846 -27.2469
rtoes 4.6711
lfemur -0.586875 -48.4767 -8.03391
ltibia -4.0961
lfoot -24.3517 55.1624
ltoes 13.8782
115
root 0.0500275 17.4978 8.16123 11.1516 1.57022 -8.19571
lowerback -1.2394 0.596841 3.87981
upperback -9.30012 1.08915 1.70753
thorax -9.07518 0.316368 -0.429506
lowerneck 4.57298 -15.3835 -15.0041
upperneck 10.4125 -23.5057 19.2883
head 6.52125 -11.613 6.76338
rclavicle -1.98785e-016 7.95139e-015
rhumerus -45.2265 -32.6283 -61.7669
rradius 25.4644
rwrist 44.6085
rhand 11.3607 -34.4389
rfingers 7.12502
rthumb 36.4157 -60.6521
lclavicle -1.98785e-016 7.95139e-015
lhumerus -44.1229 27.033 69.733
lradius 22.8721
lwrist -27.8561
lhand -16.2895 -7.64267
lfingers 7.12502
lthumb 9.92082 22.1036
rfemur -6.6803 25.1039 22.6638
rtibia 2.14833
rfoot -12.8769 -27.2739
rtoes 4.73783
lfemur -0.571285 -48.4807 -8.06449
ltibia -4.08831
lfoot -24.2283 55.151
ltoes 13.7871
116
root 0.0487068 17.4977 8.16078 11.148 1.5673 -8.19716
lowerback -1.23525 0.602977 3.87817
upperback -9.29459 1.09691 1.70101
thorax -9.07103 0.320132 -0.436072
lowerneck 4.33393 -15.3398 -14.8383
upperneck 10.6195 -23.4091 19.0426
head 6.55646 -11.5471 6.65582
rclavicle 9.0447e-015 -7.15625e-015
rhumerus -45.2819 -32.6217 -61.8026
rradius 25.5252
rwrist 44.4723
rhand 11.3065 -34.3411
rfingers 7.12502
rthumb 36.3645 -60.5672
lclavicle 9.0447e-015 -7.15625e-015
lhumerus -44.1284 27.0505 69.7006
lradius 22.88
lwrist -27.8622
lhand -16.2914 -7.57652
lfingers 7.12502
lthumb 9.91907 22.1698
rfemur -6.68036 25.0991 22.6652
rtibia 2.1484
rfoot -12.9168 -27.2459
rtoes 4.78581
lfemur -0.58737 -48.4044 -8.049
ltibia -4.08279
lfoot -24.266 55.0902
ltoes 13.8915
117
root 0.0470689 17.4972 8.16069 11.1566 1.55047 -8.19628
lowerback -1.23618 0.607662 3.86753
upperback -9.30225 1.1023 1.69106
thorax -9.07868 0.322957 -0.440992
lowerneck 4.13187 -15.2703 -14.6605
upperneck 10.7927 -23.2761 18.8098
head 6.56906 -11.4668 6.56045
rclavicle 4.62174e-015 -1.90833e-014
rhumerus -45.3746 -32.6377 -61.8257
rradius 25.568
rwrist 44.4384
rhand 11.2848 -34.3483
rfingers 7.12502
rthumb 36.3439 -60.5796
lclavicle 4.62174e-015 -1.90833e-014
lhumerus -44.1679 27.0505 69.6417
lradius 22.8999
lwrist -27.9004
lhand -16.2522 -7.57537
lfingers 7.12502
lthumb 9.95682 22.1691
rfemur -6.70709 25.0467 22.6613
rtibia 2.15721
rfoot -12.8623 -27.1968
rtoes 4.63303
lfemur -0.608055 -48.3251 -8.0331
ltibia -4.08121
lfoot -24.4305 55.0192
ltoes 14.1121
118
root 0.0452997 17.4962 8.16139 11.191 1.55736 -8.18524
lowerback -1.29152 0.606875 3.85139
upperback -9.30556 1.09706 1.68353
thorax -9.04974 0.321752 -0.43909
lowerneck 3.94814 -15.1907 -14.4924
upperneck 10.9347 -23.1324 18.6184
head 6.57399 -11.3825 6.48298
rclavicle -2.20651e-014 5.56597e-015
rhumerus -45.4653 -32.6486 -61.846
rradius 25.6037
rwrist 44.4314
rhand 11.3604 -34.4168
rfingers 7.12502
rthumb 36.4155 -60.6301
lclavicle -2.20651e-014 5.56597e-015
lhumerus -44.1872 27.0942 69.5827
lradius 22.8962
lwrist -27.9788
lhand -16.1957 -7.63058
lfingers 7.12502
lthumb 10.0114 22.1113
rfemur -6.75105 24.9806 22.6412
rtibia 2.15819
rfoot -12.7996 -27.1725
rtoes 4.46738
lfemur -0.66663 -48.3164 -7.99399
ltibia -4.0771
lfoot -24.5651 54.9869
ltoes 14.3258
